<?xml version="1.0" encoding="UTF-8"?>
<!DOCTYPE svg PUBLIC "-//W3C//DTD SVG 1.1//EN" "http://www.w3.org/Graphics/SVG/1.1/DTD/svg11.dtd">
<svg xmlns="http://www.w3.org/2000/svg" version="1.1" width="2202px" height="1355px" style="shape-rendering:geometricPrecision; text-rendering:geometricPrecision; image-rendering:optimizeQuality; fill-rule:evenodd; clip-rule:evenodd" xmlns:xlink="http://www.w3.org/1999/xlink">
<g><path style="opacity:0.945" fill="#d12018" d="M 551.5,71.5 C 547.265,70.564 542.931,70.2307 538.5,70.5C 522.912,64.6567 517.412,53.6567 522,37.5C 530.83,22.8759 542.997,19.3759 558.5,27C 570.056,37.863 571.556,50.0297 563,63.5C 559.188,66.3123 555.354,68.979 551.5,71.5 Z"/></g>
<g><path style="opacity:0.879" fill="#1d1d1b" d="M 538.5,70.5 C 542.931,70.2307 547.265,70.564 551.5,71.5C 551.5,145.167 551.5,218.833 551.5,292.5C 550.502,325.662 550.168,358.996 550.5,392.5C 546.5,392.5 542.5,392.5 538.5,392.5C 538.5,361.167 538.5,329.833 538.5,298.5C 537.167,222.5 537.167,146.5 538.5,70.5 Z"/></g>
<g><path style="opacity:0.927" fill="#908f8e" d="M 1105.5,215.5 C 1113.83,215.5 1122.17,215.5 1130.5,215.5C 1130.5,224.167 1130.5,232.833 1130.5,241.5C 1122.17,241.5 1113.83,241.5 1105.5,241.5C 1105.5,232.833 1105.5,224.167 1105.5,215.5 Z"/></g>
<g><path style="opacity:0.824" fill="#908f8e" d="M 1076.5,243.5 C 1085.5,243.5 1094.5,243.5 1103.5,243.5C 1103.67,252.173 1103.5,260.84 1103,269.5C 1094.25,270.484 1085.42,270.817 1076.5,270.5C 1076.5,261.5 1076.5,252.5 1076.5,243.5 Z"/></g>
<g><path style="opacity:0.814" fill="#908f8e" d="M 728.5,257.5 C 733.489,258.648 738.489,259.982 743.5,261.5C 746.08,263.713 746.08,265.88 743.5,268C 737.883,269.052 732.216,269.718 726.5,270C 719.173,272.54 711.673,274.373 704,275.5C 700.569,275.756 698.069,274.423 696.5,271.5C 697.364,269.803 698.697,268.637 700.5,268C 704.465,266.874 708.465,265.874 712.5,265C 716.586,260.857 721.586,258.857 727.5,259C 728.056,258.617 728.389,258.117 728.5,257.5 Z"/></g>
<g><path style="opacity:0.966" fill="#908e8e" d="M 286.5,556.5 C 264.5,557.833 242.5,557.833 220.5,556.5C 254.14,503.682 295.14,457.182 343.5,417C 401.618,366.907 466.618,327.407 538.5,298.5C 538.5,329.833 538.5,361.167 538.5,392.5C 542.5,392.5 546.5,392.5 550.5,392.5C 550.168,358.996 550.502,325.662 551.5,292.5C 551.435,292.938 551.601,293.272 552,293.5C 597.504,274.083 645.004,262.75 694.5,259.5C 697.533,259.669 700.533,260.002 703.5,260.5C 703.67,261.822 703.337,262.989 702.5,264C 681.922,269.627 662.589,277.96 644.5,289C 642.963,290.11 642.297,291.61 642.5,293.5C 644.488,293.827 646.488,294.16 648.5,294.5C 661.07,292.953 673.57,290.953 686,288.5C 693.187,288.392 695.854,291.726 694,298.5C 689.834,302.999 684.667,305.499 678.5,306C 683.976,310.734 683.643,315.068 677.5,319C 674.052,320.927 670.385,322.261 666.5,323C 657.438,323.924 648.438,325.258 639.5,327C 637.5,328 635.5,329 633.5,330C 632.663,331.011 632.33,332.178 632.5,333.5C 638.84,334.705 645.173,334.539 651.5,333C 662.167,329.667 672.833,326.333 683.5,323C 689.656,322.029 695.822,321.196 702,320.5C 708.446,321.272 710.28,324.772 707.5,331C 707.759,332.261 708.426,333.261 709.5,334C 723.502,334.333 737.502,334.167 751.5,333.5C 751.854,336.421 750.854,338.754 748.5,340.5C 751.493,342.664 754.493,344.831 757.5,347C 755.874,348.819 753.874,350.152 751.5,351C 696.463,361.208 641.796,373.208 587.5,387C 563.824,394.505 540.158,402.172 516.5,410C 459.495,431.169 405.495,458.169 354.5,491C 328.716,509.618 306.049,531.451 286.5,556.5 Z M 623.5,302.5 C 628.522,302.175 632.189,304.175 634.5,308.5C 633.96,309.748 633.293,310.915 632.5,312C 620.511,317.578 608.011,320.078 595,319.5C 594.333,318.167 594.333,316.833 595,315.5C 597.167,313.333 599.333,311.167 601.5,309C 609.117,307.387 616.451,305.22 623.5,302.5 Z M 630.5,352.5 C 634.182,352.335 637.848,352.501 641.5,353C 644.539,353.353 647.205,354.52 649.5,356.5C 648.91,357.799 647.91,358.632 646.5,359C 638.785,359.762 631.119,359.429 623.5,358C 625.54,355.664 627.873,353.831 630.5,352.5 Z"/></g>
<g><path style="opacity:0.833" fill="#908f8e" d="M 1076.5,271.5 C 1085.5,271.5 1094.5,271.5 1103.5,271.5C 1103.5,280.5 1103.5,289.5 1103.5,298.5C 1094.5,298.5 1085.5,298.5 1076.5,298.5C 1076.5,289.5 1076.5,280.5 1076.5,271.5 Z"/></g>
<g><path style="opacity:0.821" fill="#908f8e" d="M 732.5,275.5 C 738.842,275.334 745.175,275.5 751.5,276C 755.77,276.257 759.77,277.424 763.5,279.5C 765.817,281.599 765.983,283.932 764,286.5C 759.885,290.651 754.885,292.651 749,292.5C 745.333,292.167 741.667,291.833 738,291.5C 727.753,294.132 717.587,293.965 707.5,291C 704.785,290.125 703.452,288.292 703.5,285.5C 713.629,283.347 723.295,280.013 732.5,275.5 Z"/></g>
<g><path style="opacity:0.82" fill="#908f8e" d="M 771.5,294.5 C 775.308,294.163 778.974,294.663 782.5,296C 785.167,298 785.167,300 782.5,302C 774.905,306.071 767.072,306.571 759,303.5C 758.289,301.633 758.789,300.133 760.5,299C 764.157,297.178 767.824,295.678 771.5,294.5 Z"/></g>
<g><path style="opacity:0.767" fill="#908f8e" d="M 735.5,299.5 C 740.699,299.014 745.699,299.681 750.5,301.5C 753.437,304.865 752.77,307.365 748.5,309C 738.587,310.988 728.587,312.988 718.5,315C 712.482,315.988 706.649,315.488 701,313.5C 700.289,311.633 700.789,310.133 702.5,309C 713.588,305.687 724.588,302.521 735.5,299.5 Z"/></g>
<g><path style="opacity:0.834" fill="#908f8e" d="M 1076.5,299.5 C 1085.17,299.334 1093.84,299.5 1102.5,300C 1103.48,308.749 1103.82,317.582 1103.5,326.5C 1094.5,326.5 1085.5,326.5 1076.5,326.5C 1076.5,317.5 1076.5,308.5 1076.5,299.5 Z"/></g>
<g><path style="opacity:0.833" fill="#908f8e" d="M 1161.5,299.5 C 1170.17,299.334 1178.84,299.5 1187.5,300C 1188.48,308.749 1188.82,317.582 1188.5,326.5C 1179.5,326.5 1170.5,326.5 1161.5,326.5C 1161.5,317.5 1161.5,308.5 1161.5,299.5 Z"/></g>
<g><path style="opacity:0.837" fill="#908f8e" d="M 807.5,308.5 C 816.408,306.91 820.074,310.41 818.5,319C 815.131,319.663 811.797,319.496 808.5,318.5C 798.432,320.35 788.432,322.517 778.5,325C 768.135,326.876 757.801,326.876 747.5,325C 743.777,323.741 742.777,321.408 744.5,318C 746.715,316.956 749.048,316.29 751.5,316C 756.833,315.667 762.167,315.333 767.5,315C 770.637,314.399 773.637,313.399 776.5,312C 787.207,311.942 797.541,310.776 807.5,308.5 Z"/></g>
<g><path style="opacity:0.907" fill="#908f8e" d="M 934.5,328.5 C 943.167,328.5 951.833,328.5 960.5,328.5C 960.5,337.167 960.5,345.833 960.5,354.5C 951.833,354.5 943.167,354.5 934.5,354.5C 934.5,345.833 934.5,337.167 934.5,328.5 Z"/></g>
<g><path style="opacity:0.832" fill="#908f8e" d="M 962.5,356.5 C 971.5,356.5 980.5,356.5 989.5,356.5C 989.5,365.5 989.5,374.5 989.5,383.5C 980.5,383.5 971.5,383.5 962.5,383.5C 962.5,374.5 962.5,365.5 962.5,356.5 Z"/></g>
<g><path style="opacity:0.91" fill="#908f8e" d="M 1020.5,356.5 C 1028.83,356.5 1037.17,356.5 1045.5,356.5C 1045.5,365.5 1045.5,374.5 1045.5,383.5C 1037.17,383.5 1028.83,383.5 1020.5,383.5C 1020.5,374.5 1020.5,365.5 1020.5,356.5 Z"/></g>
<g><path style="opacity:0.834" fill="#908f8e" d="M 1076.5,356.5 C 1085.5,356.5 1094.5,356.5 1103.5,356.5C 1103.67,365.173 1103.5,373.84 1103,382.5C 1094.25,383.484 1085.42,383.817 1076.5,383.5C 1076.5,374.5 1076.5,365.5 1076.5,356.5 Z"/></g>
<g><path style="opacity:0.873" fill="#908f8e" d="M 934.5,384.5 C 943.167,384.5 951.833,384.5 960.5,384.5C 960.5,393.5 960.5,402.5 960.5,411.5C 951.833,411.5 943.167,411.5 934.5,411.5C 934.5,402.5 934.5,393.5 934.5,384.5 Z"/></g>
<g><path style="opacity:0.866" fill="#908f8e" d="M 991.5,384.5 C 1000.17,384.5 1008.83,384.5 1017.5,384.5C 1017.5,393.5 1017.5,402.5 1017.5,411.5C 1008.83,411.5 1000.17,411.5 991.5,411.5C 991.5,402.5 991.5,393.5 991.5,384.5 Z"/></g>
<g><path style="opacity:0.864" fill="#908f8e" d="M 849.5,412.5 C 858.085,412.183 866.585,412.517 875,413.5C 875.5,422.16 875.666,430.827 875.5,439.5C 866.833,439.5 858.167,439.5 849.5,439.5C 849.5,430.5 849.5,421.5 849.5,412.5 Z"/></g>
<g><path style="opacity:0.868" fill="#908f8e" d="M 906.5,412.5 C 915.085,412.183 923.585,412.517 932,413.5C 932.5,422.16 932.666,430.827 932.5,439.5C 923.833,439.5 915.167,439.5 906.5,439.5C 906.5,430.5 906.5,421.5 906.5,412.5 Z"/></g>
<g><path style="opacity:0.834" fill="#908f8e" d="M 963.5,412.5 C 972.085,412.183 980.585,412.517 989,413.5C 989.5,422.16 989.666,430.827 989.5,439.5C 980.5,439.5 971.5,439.5 962.5,439.5C 962.196,430.416 962.529,421.416 963.5,412.5 Z"/></g>
<g><path style="opacity:0.91" fill="#908f8e" d="M 1020.5,412.5 C 1028.83,412.5 1037.17,412.5 1045.5,412.5C 1045.5,421.5 1045.5,430.5 1045.5,439.5C 1037.17,439.5 1028.83,439.5 1020.5,439.5C 1020.5,430.5 1020.5,421.5 1020.5,412.5 Z"/></g>
<g><path style="opacity:0.987" fill="#f08700" d="M 529.5,435.5 C 565.906,433.063 598.573,442.896 627.5,465C 668.491,503.188 682.658,549.354 670,603.5C 659.551,637.265 639.385,663.432 609.5,682C 571.09,701.722 531.756,703.722 491.5,688C 442.168,663.058 416.501,622.725 414.5,567C 416.315,517.337 437.982,479.337 479.5,453C 495.381,444.431 512.048,438.598 529.5,435.5 Z"/></g>
<g><path style="opacity:0.866" fill="#908f8e" d="M 820.5,442.5 C 829.5,442.5 838.5,442.5 847.5,442.5C 847.666,450.84 847.5,459.173 847,467.5C 838.333,468.833 829.667,468.833 821,467.5C 820.5,459.173 820.334,450.84 820.5,442.5 Z"/></g>
<g><path style="opacity:0.896" fill="#908f8e" d="M 849.5,442.5 C 858.167,442.5 866.833,442.5 875.5,442.5C 875.5,451.167 875.5,459.833 875.5,468.5C 866.833,468.5 858.167,468.5 849.5,468.5C 849.5,459.833 849.5,451.167 849.5,442.5 Z"/></g>
<g><path style="opacity:0.9" fill="#908f8e" d="M 877.5,442.5 C 886.167,442.5 894.833,442.5 903.5,442.5C 903.5,451.167 903.5,459.833 903.5,468.5C 895.16,468.666 886.827,468.5 878.5,468C 877.517,459.585 877.183,451.085 877.5,442.5 Z"/></g>
<g><path style="opacity:0.899" fill="#908f8e" d="M 906.5,442.5 C 915.167,442.5 923.833,442.5 932.5,442.5C 932.5,451.167 932.5,459.833 932.5,468.5C 923.833,468.5 915.167,468.5 906.5,468.5C 906.5,459.833 906.5,451.167 906.5,442.5 Z"/></g>
<g><path style="opacity:0.906" fill="#908f8e" d="M 934.5,442.5 C 943.167,442.5 951.833,442.5 960.5,442.5C 960.5,451.167 960.5,459.833 960.5,468.5C 951.833,468.5 943.167,468.5 934.5,468.5C 934.5,459.833 934.5,451.167 934.5,442.5 Z"/></g>
<g><path style="opacity:0.9" fill="#908f8e" d="M 991.5,442.5 C 1000.17,442.5 1008.83,442.5 1017.5,442.5C 1017.5,451.167 1017.5,459.833 1017.5,468.5C 1008.83,468.5 1000.17,468.5 991.5,468.5C 991.5,459.833 991.5,451.167 991.5,442.5 Z"/></g>
<g><path style="opacity:0.906" fill="#908f8e" d="M 1133.5,442.5 C 1142.17,442.5 1150.83,442.5 1159.5,442.5C 1159.5,451.167 1159.5,459.833 1159.5,468.5C 1150.83,468.5 1142.17,468.5 1133.5,468.5C 1133.5,459.833 1133.5,451.167 1133.5,442.5 Z"/></g>
<g><path style="opacity:0.863" fill="#908f8e" d="M 849.5,470.5 C 858.167,470.5 866.833,470.5 875.5,470.5C 875.5,479.5 875.5,488.5 875.5,497.5C 866.833,497.5 858.167,497.5 849.5,497.5C 849.5,488.5 849.5,479.5 849.5,470.5 Z"/></g>
<g><path style="opacity:0.867" fill="#908f8e" d="M 877.5,470.5 C 886.167,470.5 894.833,470.5 903.5,470.5C 903.5,479.5 903.5,488.5 903.5,497.5C 894.915,497.817 886.415,497.483 878,496.5C 877.5,487.84 877.334,479.173 877.5,470.5 Z"/></g>
<g><path style="opacity:0.873" fill="#908f8e" d="M 934.5,470.5 C 943.167,470.5 951.833,470.5 960.5,470.5C 960.5,479.5 960.5,488.5 960.5,497.5C 951.833,497.5 943.167,497.5 934.5,497.5C 934.5,488.5 934.5,479.5 934.5,470.5 Z"/></g>
<g><path style="opacity:0.868" fill="#908f8e" d="M 991.5,470.5 C 1000.17,470.5 1008.83,470.5 1017.5,470.5C 1017.67,479.173 1017.5,487.84 1017,496.5C 1008.59,497.483 1000.09,497.817 991.5,497.5C 991.5,488.5 991.5,479.5 991.5,470.5 Z"/></g>
<g><path style="opacity:1" fill="#fffdfc" d="M 472.5,474.5 C 491.919,472.018 502.919,480.351 505.5,499.5C 503.75,518.381 493.417,526.881 474.5,525C 459.819,520.152 453.319,509.985 455,494.5C 457.861,485.037 463.694,478.37 472.5,474.5 Z"/></g>
<g><path style="opacity:0.867" fill="#908f8e" d="M 792.5,498.5 C 801.167,498.5 809.833,498.5 818.5,498.5C 818.5,507.5 818.5,516.5 818.5,525.5C 809.833,525.5 801.167,525.5 792.5,525.5C 792.5,516.5 792.5,507.5 792.5,498.5 Z"/></g>
<g><path style="opacity:0.832" fill="#908f8e" d="M 820.5,498.5 C 829.5,498.5 838.5,498.5 847.5,498.5C 847.5,507.5 847.5,516.5 847.5,525.5C 838.5,525.5 829.5,525.5 820.5,525.5C 820.5,516.5 820.5,507.5 820.5,498.5 Z"/></g>
<g><path style="opacity:0.863" fill="#908f8e" d="M 849.5,498.5 C 858.167,498.5 866.833,498.5 875.5,498.5C 875.5,507.5 875.5,516.5 875.5,525.5C 866.833,525.5 858.167,525.5 849.5,525.5C 849.5,516.5 849.5,507.5 849.5,498.5 Z"/></g>
<g><path style="opacity:0.866" fill="#908f8e" d="M 877.5,498.5 C 886.167,498.5 894.833,498.5 903.5,498.5C 903.5,507.5 903.5,516.5 903.5,525.5C 894.833,525.5 886.167,525.5 877.5,525.5C 877.5,516.5 877.5,507.5 877.5,498.5 Z"/></g>
<g><path style="opacity:0.866" fill="#908f8e" d="M 906.5,498.5 C 915.167,498.5 923.833,498.5 932.5,498.5C 932.5,507.5 932.5,516.5 932.5,525.5C 923.833,525.5 915.167,525.5 906.5,525.5C 906.5,516.5 906.5,507.5 906.5,498.5 Z"/></g>
<g><path style="opacity:0.873" fill="#908f8e" d="M 934.5,498.5 C 943.167,498.5 951.833,498.5 960.5,498.5C 960.5,507.5 960.5,516.5 960.5,525.5C 951.833,525.5 943.167,525.5 934.5,525.5C 934.5,516.5 934.5,507.5 934.5,498.5 Z"/></g>
<g><path style="opacity:0.832" fill="#908f8e" d="M 962.5,498.5 C 971.5,498.5 980.5,498.5 989.5,498.5C 989.5,507.5 989.5,516.5 989.5,525.5C 980.5,525.5 971.5,525.5 962.5,525.5C 962.5,516.5 962.5,507.5 962.5,498.5 Z"/></g>
<g><path style="opacity:0.91" fill="#908f8e" d="M 1020.5,498.5 C 1028.83,498.5 1037.17,498.5 1045.5,498.5C 1045.5,507.5 1045.5,516.5 1045.5,525.5C 1037.17,525.5 1028.83,525.5 1020.5,525.5C 1020.5,516.5 1020.5,507.5 1020.5,498.5 Z"/></g>
<g><path style="opacity:0.856" fill="#908f8e" d="M 792.5,526.5 C 801.167,526.5 809.833,526.5 818.5,526.5C 818.5,535.5 818.5,544.5 818.5,553.5C 809.833,553.5 801.167,553.5 792.5,553.5C 792.5,544.5 792.5,535.5 792.5,526.5 Z"/></g>
<g><path style="opacity:0.822" fill="#908f8e" d="M 820.5,526.5 C 829.5,526.5 838.5,526.5 847.5,526.5C 847.5,535.5 847.5,544.5 847.5,553.5C 838.5,553.5 829.5,553.5 820.5,553.5C 820.5,544.5 820.5,535.5 820.5,526.5 Z"/></g>
<g><path style="opacity:0.853" fill="#908f8e" d="M 849.5,526.5 C 858.167,526.5 866.833,526.5 875.5,526.5C 875.5,535.5 875.5,544.5 875.5,553.5C 866.833,553.5 858.167,553.5 849.5,553.5C 849.5,544.5 849.5,535.5 849.5,526.5 Z"/></g>
<g><path style="opacity:0.856" fill="#908f8e" d="M 877.5,526.5 C 886.167,526.5 894.833,526.5 903.5,526.5C 903.5,535.5 903.5,544.5 903.5,553.5C 894.833,553.5 886.167,553.5 877.5,553.5C 877.5,544.5 877.5,535.5 877.5,526.5 Z"/></g>
<g><path style="opacity:0.863" fill="#908f8e" d="M 934.5,526.5 C 943.167,526.5 951.833,526.5 960.5,526.5C 960.5,535.5 960.5,544.5 960.5,553.5C 951.833,553.5 943.167,553.5 934.5,553.5C 934.5,544.5 934.5,535.5 934.5,526.5 Z"/></g>
<g><path style="opacity:0.942" fill="#d12018" d="M 68.5,556.5 C 68.5,561.5 68.5,566.5 68.5,571.5C 62.8847,584.81 52.8847,589.976 38.5,587C 24.4509,581.067 19.2843,570.567 23,555.5C 30.8418,538.86 43.0085,534.694 59.5,543C 63.7668,547.138 66.7668,551.638 68.5,556.5 Z"/></g>
<g><path style="opacity:0.935" fill="#d12118" d="M 1855.5,571.5 C 1855.65,567.083 1855.65,562.416 1855.5,557.5C 1860.35,543.233 1870.35,537.4 1885.5,540C 1900.2,546.583 1905.37,557.749 1901,573.5C 1895.75,584.71 1886.92,589.544 1874.5,588C 1865.17,585.827 1858.83,580.327 1855.5,571.5 Z"/></g>
<g><path style="opacity:0.929" fill="#908f8e" d="M 764.5,555.5 C 772.833,555.5 781.167,555.5 789.5,555.5C 789.5,564.167 789.5,572.833 789.5,581.5C 781.167,581.5 772.833,581.5 764.5,581.5C 764.5,572.833 764.5,564.167 764.5,555.5 Z"/></g>
<g><path style="opacity:0.893" fill="#908f8e" d="M 792.5,555.5 C 801.167,555.5 809.833,555.5 818.5,555.5C 818.5,564.167 818.5,572.833 818.5,581.5C 809.833,581.5 801.167,581.5 792.5,581.5C 792.5,572.833 792.5,564.167 792.5,555.5 Z"/></g>
<g><path style="opacity:0.889" fill="#908f8e" d="M 849.5,555.5 C 858.167,555.5 866.833,555.5 875.5,555.5C 875.5,564.167 875.5,572.833 875.5,581.5C 866.833,581.5 858.167,581.5 849.5,581.5C 849.5,572.833 849.5,564.167 849.5,555.5 Z"/></g>
<g><path style="opacity:0.893" fill="#908f8e" d="M 877.5,555.5 C 886.167,555.5 894.833,555.5 903.5,555.5C 903.5,564.167 903.5,572.833 903.5,581.5C 894.833,581.5 886.167,581.5 877.5,581.5C 877.5,572.833 877.5,564.167 877.5,555.5 Z"/></g>
<g><path style="opacity:0.893" fill="#908f8e" d="M 906.5,555.5 C 915.167,555.5 923.833,555.5 932.5,555.5C 932.5,564.167 932.5,572.833 932.5,581.5C 923.833,581.5 915.167,581.5 906.5,581.5C 906.5,572.833 906.5,564.167 906.5,555.5 Z"/></g>
<g><path style="opacity:0.888" fill="#1d1d1b" d="M 68.5,556.5 C 119.167,556.5 169.833,556.5 220.5,556.5C 242.5,557.833 264.5,557.833 286.5,556.5C 319.833,556.5 353.167,556.5 386.5,556.5C 386.5,561.167 386.5,565.833 386.5,570.5C 349.833,570.5 313.167,570.5 276.5,570.5C 254.931,569.174 233.264,569.174 211.5,570.5C 163.761,570.172 116.095,570.505 68.5,571.5C 68.5,566.5 68.5,561.5 68.5,556.5 Z"/></g>
<g><path style="opacity:0.889" fill="#1d1d1b" d="M 697.5,557.5 C 718.833,557.5 740.167,557.5 761.5,557.5C 761.5,561.833 761.5,566.167 761.5,570.5C 740.167,570.5 718.833,570.5 697.5,570.5C 697.5,566.167 697.5,561.833 697.5,557.5 Z"/></g>
<g><path style="opacity:0.918" fill="#1d1d1a" d="M 1855.5,557.5 C 1855.65,562.416 1855.65,567.083 1855.5,571.5C 1549,570.5 1242.33,570.167 935.5,570.5C 935.5,566.167 935.5,561.833 935.5,557.5C 1242.17,557.5 1548.83,557.5 1855.5,557.5 Z"/></g>
<g><path style="opacity:0.97" fill="#908e8e" d="M 276.5,570.5 C 259.186,596.602 248.686,625.269 245,656.5C 241.923,705.222 263.09,738.055 308.5,755C 335.56,763.279 363.227,766.279 391.5,764C 483.683,755.492 569.683,728.158 649.5,682C 679.072,663.618 705.906,641.784 730,616.5C 740.767,604.242 750.933,591.576 760.5,578.5C 761.5,599.156 761.833,619.823 761.5,640.5C 796.167,640.5 830.833,640.5 865.5,640.5C 865.649,641.552 865.483,642.552 865,643.5C 862.294,645.871 859.961,648.537 858,651.5C 847.99,660.235 838.157,669.069 828.5,678C 815.167,687.333 801.833,696.667 788.5,706C 713.929,749.913 634.929,783.413 551.5,806.5C 550.833,806.5 550.5,806.167 550.5,805.5C 550.5,783.167 550.5,760.833 550.5,738.5C 546.5,738.5 542.5,738.5 538.5,738.5C 538.5,761.5 538.5,784.5 538.5,807.5C 538.672,808.492 538.338,809.158 537.5,809.5C 474.165,823.17 410.498,825.003 346.5,815C 314.242,808.579 283.575,797.579 254.5,782C 243.905,774.413 233.572,766.413 223.5,758C 184.184,716.461 174.017,667.961 193,612.5C 198.484,598.219 204.651,584.219 211.5,570.5C 233.264,569.174 254.931,569.174 276.5,570.5 Z"/></g>
<g><path style="opacity:0.928" fill="#908f8e" d="M 764.5,583.5 C 772.833,583.5 781.167,583.5 789.5,583.5C 789.5,592.167 789.5,600.833 789.5,609.5C 781.167,609.5 772.833,609.5 764.5,609.5C 764.5,600.833 764.5,592.167 764.5,583.5 Z"/></g>
<g><path style="opacity:0.892" fill="#908f8e" d="M 792.5,583.5 C 801.167,583.5 809.833,583.5 818.5,583.5C 818.5,592.167 818.5,600.833 818.5,609.5C 809.833,609.5 801.167,609.5 792.5,609.5C 792.5,600.833 792.5,592.167 792.5,583.5 Z"/></g>
<g><path style="opacity:0.856" fill="#908f8e" d="M 820.5,583.5 C 829.5,583.5 838.5,583.5 847.5,583.5C 847.5,592.167 847.5,600.833 847.5,609.5C 838.5,609.5 829.5,609.5 820.5,609.5C 820.5,600.833 820.5,592.167 820.5,583.5 Z"/></g>
<g><path style="opacity:0.888" fill="#908f8e" d="M 849.5,583.5 C 858.167,583.5 866.833,583.5 875.5,583.5C 875.5,592.167 875.5,600.833 875.5,609.5C 866.833,609.5 858.167,609.5 849.5,609.5C 849.5,600.833 849.5,592.167 849.5,583.5 Z"/></g>
<g><path style="opacity:0.892" fill="#908f8e" d="M 906.5,583.5 C 915.167,583.5 923.833,583.5 932.5,583.5C 932.5,592.167 932.5,600.833 932.5,609.5C 923.833,609.5 915.167,609.5 906.5,609.5C 906.5,600.833 906.5,592.167 906.5,583.5 Z"/></g>
<g><path style="opacity:0.89" fill="#908f8e" d="M 764.5,611.5 C 772.833,611.5 781.167,611.5 789.5,611.5C 789.5,620.5 789.5,629.5 789.5,638.5C 781.167,638.5 772.833,638.5 764.5,638.5C 764.5,629.5 764.5,620.5 764.5,611.5 Z"/></g>
<g><path style="opacity:0.856" fill="#908f8e" d="M 792.5,611.5 C 801.167,611.5 809.833,611.5 818.5,611.5C 818.5,620.5 818.5,629.5 818.5,638.5C 809.833,638.5 801.167,638.5 792.5,638.5C 792.5,629.5 792.5,620.5 792.5,611.5 Z"/></g>
<g><path style="opacity:0.822" fill="#908f8e" d="M 820.5,611.5 C 829.5,611.5 838.5,611.5 847.5,611.5C 847.5,620.5 847.5,629.5 847.5,638.5C 838.5,638.5 829.5,638.5 820.5,638.5C 820.5,629.5 820.5,620.5 820.5,611.5 Z"/></g>
<g><path style="opacity:0.852" fill="#908f8e" d="M 849.5,611.5 C 858.167,611.5 866.833,611.5 875.5,611.5C 875.5,620.5 875.5,629.5 875.5,638.5C 866.833,638.5 858.167,638.5 849.5,638.5C 849.5,629.5 849.5,620.5 849.5,611.5 Z"/></g>
<g><path style="opacity:0.869" fill="#1c1c1a" d="M 550.5,805.5 C 550.5,806.167 550.833,806.5 551.5,806.5C 551.5,891.167 551.5,975.833 551.5,1060.5C 547.378,1060.66 543.044,1060.66 538.5,1060.5C 537.503,976.904 537.17,893.237 537.5,809.5C 538.338,809.158 538.672,808.492 538.5,807.5C 539.497,785.006 539.831,762.339 539.5,739.5C 542.833,739.5 546.167,739.5 549.5,739.5C 549.169,761.673 549.503,783.673 550.5,805.5 Z"/></g>
<g><path style="opacity:1" fill="#2f2e2d" d="M 550.5,805.5 C 549.503,783.673 549.169,761.673 549.5,739.5C 546.167,739.5 542.833,739.5 539.5,739.5C 539.831,762.339 539.497,785.006 538.5,807.5C 538.5,784.5 538.5,761.5 538.5,738.5C 542.5,738.5 546.5,738.5 550.5,738.5C 550.5,760.833 550.5,783.167 550.5,805.5 Z"/></g>
<g><path style="opacity:0.97" fill="#1c1d1a" d="M 1600.5,812.5 C 1633.43,810.043 1664.76,815.876 1694.5,830C 1700.29,833.542 1705.62,837.542 1710.5,842C 1701.55,856.734 1692.71,871.568 1684,886.5C 1682.11,889.641 1679.78,892.308 1677,894.5C 1669.1,890.133 1661.27,885.633 1653.5,881C 1634.87,872.767 1615.54,870.434 1595.5,874C 1588.22,877.829 1586.05,883.663 1589,891.5C 1590.94,894.106 1593.44,895.939 1596.5,897C 1611.66,901.791 1627,905.957 1642.5,909.5C 1657.48,914.213 1671.81,920.38 1685.5,928C 1709.13,945.536 1718.29,969.036 1713,998.5C 1709.86,1019.96 1699.36,1036.79 1681.5,1049C 1660.38,1059.99 1637.88,1065.16 1614,1064.5C 1582.51,1064.17 1552.68,1057 1524.5,1043C 1520.24,1040.05 1516.24,1036.89 1512.5,1033.5C 1516.56,1025.71 1520.9,1018.04 1525.5,1010.5C 1532.62,1000.73 1539.29,990.728 1545.5,980.5C 1563.72,992.742 1583.72,1000.58 1605.5,1004C 1615.21,1004.82 1624.88,1004.49 1634.5,1003C 1641.77,1001.73 1645.44,997.393 1645.5,990C 1644.87,986.403 1643.2,983.403 1640.5,981C 1635.4,978.117 1630.07,975.783 1624.5,974C 1601.78,969.49 1579.78,962.823 1558.5,954C 1531.05,940.631 1517.72,919.464 1518.5,890.5C 1520.11,859.747 1534.45,837.247 1561.5,823C 1574.16,817.754 1587.16,814.254 1600.5,812.5 Z"/></g>
<g><path style="opacity:0.972" fill="#1c1d1a" d="M 704.5,816.5 C 749.835,816.333 795.168,816.5 840.5,817C 888.099,820.593 909.599,846.093 905,893.5C 903.693,900.426 901.026,906.76 897,912.5C 891.126,918.043 884.959,923.21 878.5,928C 901.083,938.466 912.083,956.3 911.5,981.5C 910.209,1030.29 885.209,1056.46 836.5,1060C 792.501,1060.5 748.501,1060.67 704.5,1060.5C 704.5,979.167 704.5,897.833 704.5,816.5 Z M 770.5,871.5 C 789.503,871.333 808.503,871.5 827.5,872C 830.548,872.606 833.048,874.106 835,876.5C 840.012,885.907 840.012,894.574 835,902.5C 833.065,904.102 830.899,905.269 828.5,906C 809.213,907.436 789.88,907.936 770.5,907.5C 770.5,895.5 770.5,883.5 770.5,871.5 Z M 770.5,960.5 C 790.169,960.333 809.836,960.5 829.5,961C 839.696,964.709 844.696,972.042 844.5,983C 845.103,992.709 841.103,999.709 832.5,1004C 811.887,1005.45 791.22,1005.95 770.5,1005.5C 770.5,990.5 770.5,975.5 770.5,960.5 Z"/></g>
<g><path style="opacity:0.983" fill="#1c1d1a" d="M 936.5,816.5 C 959.5,816.5 982.5,816.5 1005.5,816.5C 1005.5,897.833 1005.5,979.167 1005.5,1060.5C 982.5,1060.5 959.5,1060.5 936.5,1060.5C 936.5,979.167 936.5,897.833 936.5,816.5 Z"/></g>
<g><path style="opacity:0.973" fill="#1c1d1a" d="M 1038.5,816.5 C 1058.5,816.333 1078.5,816.5 1098.5,817C 1119.03,843.899 1139.2,871.066 1159,898.5C 1168.03,912.854 1177.03,927.187 1186,941.5C 1185.55,899.855 1185.38,858.189 1185.5,816.5C 1207.17,816.5 1228.83,816.5 1250.5,816.5C 1250.5,897.833 1250.5,979.167 1250.5,1060.5C 1231.83,1060.67 1213.16,1060.5 1194.5,1060C 1173.15,1030.91 1151.98,1001.75 1131,972.5C 1121.97,958.146 1112.97,943.813 1104,929.5C 1104.36,973.159 1104.52,1016.83 1104.5,1060.5C 1082.5,1060.5 1060.5,1060.5 1038.5,1060.5C 1038.5,979.167 1038.5,897.833 1038.5,816.5 Z"/></g>
<g><path style="opacity:0.974" fill="#1c1d1a" d="M 1280.5,816.5 C 1303.5,816.5 1326.5,816.5 1349.5,816.5C 1349.03,869.199 1349.53,921.866 1351,974.5C 1357.37,998.615 1372.87,1007.78 1397.5,1002C 1404.49,1000.26 1409.99,996.425 1414,990.5C 1417.53,983.905 1419.86,976.905 1421,969.5C 1421.5,918.501 1421.67,867.501 1421.5,816.5C 1444.83,816.5 1468.17,816.5 1491.5,816.5C 1491.67,869.501 1491.5,922.501 1491,975.5C 1481.72,1035.76 1446.38,1065.42 1385,1064.5C 1357.82,1065.25 1333.32,1057.75 1311.5,1042C 1293.47,1023.65 1283.31,1001.48 1281,975.5C 1280.5,922.501 1280.33,869.501 1280.5,816.5 Z"/></g>
<g><path style="opacity:0.934" fill="#d12118" d="M 538.5,1060.5 C 543.044,1060.66 547.378,1060.66 551.5,1060.5C 560.129,1063.06 565.629,1068.73 568,1077.5C 570.874,1096.11 563.041,1106.44 544.5,1108.5C 527.212,1106.62 519.378,1096.96 521,1079.5C 523.216,1069.79 529.05,1063.45 538.5,1060.5 Z"/></g>
<g><path style="opacity:0.95" fill="#008dd3" d="M 1684.5,1152.5 C 1714.67,1148.68 1740,1157.68 1760.5,1179.5C 1751.83,1187.67 1743.33,1196.01 1735,1204.5C 1730.13,1199.97 1724.97,1195.8 1719.5,1192C 1707.54,1186.3 1695.2,1185.3 1682.5,1189C 1675.22,1192.73 1672.72,1198.56 1675,1206.5C 1675.78,1208.29 1676.95,1209.79 1678.5,1211C 1691.36,1216.51 1704.69,1220.51 1718.5,1223C 1760.41,1235.65 1773.24,1262.49 1757,1303.5C 1747.48,1316.52 1734.65,1324.35 1718.5,1327C 1691.32,1332.36 1666.32,1327.36 1643.5,1312C 1638.35,1307.85 1634.35,1302.85 1631.5,1297C 1639.3,1289.17 1647.47,1281.67 1656,1274.5C 1674.57,1293.63 1696.41,1298.46 1721.5,1289C 1726.25,1283.73 1727.75,1277.56 1726,1270.5C 1724.75,1267.83 1722.92,1265.66 1720.5,1264C 1715.32,1261.61 1709.99,1259.61 1704.5,1258C 1695.09,1255.98 1685.75,1253.65 1676.5,1251C 1664.47,1246.91 1653.97,1240.41 1645,1231.5C 1637.03,1216.92 1635.37,1201.59 1640,1185.5C 1645.56,1171.6 1655.4,1162.1 1669.5,1157C 1674.58,1155.32 1679.58,1153.82 1684.5,1152.5 Z"/></g>
<g><path style="opacity:0.949" fill="#008dd3" d="M 704.5,1154.5 C 716.167,1154.5 727.833,1154.5 739.5,1154.5C 739.053,1190.86 739.553,1227.19 741,1263.5C 745.742,1287.91 760.242,1297.41 784.5,1292C 797.363,1286.48 804.53,1276.65 806,1262.5C 806.5,1226.5 806.667,1190.5 806.5,1154.5C 818.5,1154.5 830.5,1154.5 842.5,1154.5C 842.667,1190.83 842.5,1227.17 842,1263.5C 834.411,1313.4 805.578,1334.57 755.5,1327C 732.961,1321.46 717.627,1307.8 709.5,1286C 707.363,1279.65 705.863,1273.15 705,1266.5C 704.5,1229.17 704.333,1191.83 704.5,1154.5 Z"/></g>
<g><path style="opacity:0.948" fill="#008dd3" d="M 881.5,1154.5 C 892.838,1154.33 904.172,1154.5 915.5,1155C 939.027,1189.88 962.194,1225.04 985,1260.5C 984.562,1225.19 984.395,1189.85 984.5,1154.5C 996.167,1154.5 1007.83,1154.5 1019.5,1154.5C 1019.5,1211.83 1019.5,1269.17 1019.5,1326.5C 1008.81,1326.83 998.146,1326.5 987.5,1325.5C 963.988,1289.8 940.488,1254.13 917,1218.5C 916.5,1254.5 916.333,1290.5 916.5,1326.5C 904.833,1326.5 893.167,1326.5 881.5,1326.5C 881.5,1269.17 881.5,1211.83 881.5,1154.5 Z"/></g>
<g><path style="opacity:0.956" fill="#008dd3" d="M 1063.5,1154.5 C 1075.17,1154.5 1086.83,1154.5 1098.5,1154.5C 1098.5,1211.83 1098.5,1269.17 1098.5,1326.5C 1086.83,1326.5 1075.17,1326.5 1063.5,1326.5C 1063.5,1269.17 1063.5,1211.83 1063.5,1154.5 Z"/></g>
<g><path style="opacity:0.941" fill="#008dd3" d="M 1129.5,1154.5 C 1142.83,1154.5 1156.17,1154.5 1169.5,1154.5C 1182.41,1194.26 1195.08,1234.59 1207.5,1275.5C 1219.43,1234.89 1231.93,1194.89 1245,1155.5C 1257.75,1154.51 1270.59,1154.18 1283.5,1154.5C 1279.82,1167.48 1275.82,1179.98 1271.5,1192C 1255.48,1236.4 1239.64,1280.9 1224,1325.5C 1212.58,1326.49 1201.08,1326.82 1189.5,1326.5C 1169.48,1268.39 1149.48,1211.06 1129.5,1154.5 Z"/></g>
<g><path style="opacity:0.949" fill="#008dd3" d="M 1312.5,1154.5 C 1351.83,1154.5 1391.17,1154.5 1430.5,1154.5C 1430.5,1166.17 1430.5,1177.83 1430.5,1189.5C 1402.83,1189.5 1375.17,1189.5 1347.5,1189.5C 1347.5,1198.5 1347.5,1207.5 1347.5,1216.5C 1363.5,1216.5 1379.5,1216.5 1395.5,1216.5C 1395.5,1228.5 1395.5,1240.5 1395.5,1252.5C 1379.5,1252.5 1363.5,1252.5 1347.5,1252.5C 1347.5,1265.5 1347.5,1278.5 1347.5,1291.5C 1376.5,1291.5 1405.5,1291.5 1434.5,1291.5C 1434.5,1303.17 1434.5,1314.83 1434.5,1326.5C 1393.83,1326.5 1353.17,1326.5 1312.5,1326.5C 1312.5,1269.17 1312.5,1211.83 1312.5,1154.5 Z"/></g>
<g><path style="opacity:0.954" fill="#008dd3" d="M 1468.5,1154.5 C 1497.5,1154.33 1526.5,1154.5 1555.5,1155C 1588.21,1158.76 1604.88,1177.1 1605.5,1210C 1606.18,1233.62 1595.85,1250.29 1574.5,1260C 1585.05,1281.62 1595.38,1303.79 1605.5,1326.5C 1592.16,1326.67 1578.83,1326.5 1565.5,1326C 1555.71,1306.24 1546.04,1286.41 1536.5,1266.5C 1525.52,1265.5 1514.52,1265.17 1503.5,1265.5C 1503.5,1285.83 1503.5,1306.17 1503.5,1326.5C 1491.83,1326.5 1480.17,1326.5 1468.5,1326.5C 1468.5,1269.17 1468.5,1211.83 1468.5,1154.5 Z M 1503.5,1189.5 C 1520.5,1189.33 1537.5,1189.5 1554.5,1190C 1564.55,1192.74 1569.22,1199.41 1568.5,1210C 1569.32,1219.71 1565.32,1226.38 1556.5,1230C 1538.89,1231.44 1521.22,1231.94 1503.5,1231.5C 1503.5,1217.5 1503.5,1203.5 1503.5,1189.5 Z"/></g>
<g><path style="opacity:0.929" fill="#008dd3" d="M 1799.5,1154.5 C 1811.5,1154.5 1823.5,1154.5 1835.5,1154.5C 1835.5,1211.83 1835.5,1269.17 1835.5,1326.5C 1823.5,1326.5 1811.5,1326.5 1799.5,1326.5C 1799.5,1269.17 1799.5,1211.83 1799.5,1154.5 Z"/></g>
<g><path style="opacity:0.96" fill="#008dd3" d="M 1867.5,1154.5 C 1911.17,1154.5 1954.83,1154.5 1998.5,1154.5C 1998.5,1166.17 1998.5,1177.83 1998.5,1189.5C 1982.5,1189.5 1966.5,1189.5 1950.5,1189.5C 1950.5,1235.17 1950.5,1280.83 1950.5,1326.5C 1938.92,1326.82 1927.42,1326.49 1916,1325.5C 1915.17,1280.26 1915.34,1235.1 1916.5,1190C 1900.17,1189.5 1883.84,1189.33 1867.5,1189.5C 1867.5,1177.83 1867.5,1166.17 1867.5,1154.5 Z"/></g>
<g><path style="opacity:0.939" fill="#008dd3" d="M 2013.5,1154.5 C 2027.18,1154.17 2040.85,1154.5 2054.5,1155.5C 2068,1179.17 2081.5,1202.83 2095,1226.5C 2107.49,1202.18 2120.99,1178.52 2135.5,1155.5C 2148.48,1154.5 2161.48,1154.17 2174.5,1154.5C 2174.66,1155.87 2174.49,1157.21 2174,1158.5C 2153.92,1191.67 2133.58,1224.67 2113,1257.5C 2112.5,1280.5 2112.33,1303.5 2112.5,1326.5C 2100.5,1326.5 2088.5,1326.5 2076.5,1326.5C 2076.67,1303.83 2076.5,1281.16 2076,1258.5C 2054.91,1223.98 2034.07,1189.31 2013.5,1154.5 Z"/></g>
</svg>
